<?xml version="1.0" encoding="UTF-8"?>
<svg width="36px" height="102px" viewBox="0 0 36 102" version="1.1" xmlns="http://www.w3.org/2000/svg" xmlns:xlink="http://www.w3.org/1999/xlink">
    <!-- Generator: Sketch 55.2 (78181) - https://sketchapp.com -->
    <title>Group 2</title>
    <desc>Created with Sketch.</desc>
    <g id="Desktop" stroke="none" stroke-width="1" fill="none" fill-rule="evenodd">
        <g id="Step-2" transform="translate(-285.000000, -441.000000)" stroke="#DDDDDD">
            <g id="Group-2" transform="translate(286.000000, 442.000000)">
                <g id="Group">
                    <path d="M24.9699522,31.560478 L24.7057195,35.2601156 L26.182443,48.2340789 L26.249262,49.7109827 L26.2481296,49.7109827 C26.3122987,50.7102733 26.2289935,50.579434 26.2481296,51.6306035 C26.2966153,54.2939876 26.0441028,58.6637479 25.490592,64.7398844 C25.1834999,66.4882237 25.0299539,69.3071749 25.0299539,73.1967379 C25.0299539,79.0310825 24.5080763,81.766167 24.0433441,84.0011967 C23.578612,86.2362265 23.2395306,88.4130191 22.7281796,91.6535385 C22.2168287,94.894058 22.0214916,95.0106729 24.0433441,97.7002301 C26.0651967,100.389787 22.8580403,99.9266867 19.8898744,99.9266867 C16.9217085,99.9266867 18.8755648,98.0737365 18.5270883,95.8559046 C18.3946649,95.0131134 18.5696068,94.6840342 18.6775134,93.2940408 C18.8535664,91.026222 18.9481901,87.5318456 18.9481901,84.0011967 C18.9481901,78.5975706 19.4964397,76.916177 19.0534497,73.1967379 C18.7581231,70.7171118 18.3521537,67.8981607 17.8355414,64.7398844 C17.8580304,58.1123712 17.5529134,54.7986145 16.9201904,54.7986145 C15.9711058,54.7986145 15.7114601,61.4223927 15.7114601,64.7398844 C15.7114601,68.057376 14.7127494,70.2635168 14.7127494,73.1967379 C14.7127494,76.1299591 15.1521811,77.9069752 15.1521811,83.682964 C15.1521811,89.4589529 15.1521811,90.6236986 15.1521811,93.2940408 C15.1521811,95.9643831 15.4904698,96.6745852 15.4904698,98.5162129 C15.4904698,100.357841 13.7378002,99.9266867 10.6375379,99.9266867 C7.53727561,99.9266867 10.5646113,96.9251927 11.1519287,95.8559046 C11.7392462,94.7866165 11.7166529,90.4837835 10.0142995,84.0011967 C8.31194619,77.51861 9.0016594,73.8343088 8.36976957,71.5673176 C7.35491195,64.3182003 7.05133892,57.0327553 7.45905049,49.7109827 L7.47556911,49.7109827 L7.59841694,47.4030512 L9.62889678,35.2601156 L9.19625215,31.0997853 C8.55080244,32.7984503 8.11284456,33.9925489 7.88237851,34.6820809 C7.24613542,36.5856584 6.85372019,37.1892003 5.96516307,39.4680217 C5.41489187,44.5086705 2.7123554,49.2671456 2.41271364,50.9588584 C2.11307189,52.6505712 3.52799804,52.9941282 3.41143198,55.4913295 C3.29486592,57.9885307 2.22355026,55.4913295 2.22355026,56.0693642 C2.22355026,56.6473988 3.44058115,60.4046243 1.37180329,58.9595376 C-0.696974564,57.5144509 0.123292369,52.2106179 0.361269182,50.867052 C0.599245995,49.5234862 0.911319787,45.7708696 1.66201671,42.2495966 C2.16248133,39.9020813 2.74561975,37.8806754 3.41143198,36.1853789 C3.94224092,33.3829865 4.61006088,30.7624267 5.41489187,28.3236994 C6.12659194,26.1671692 7.20037566,23.7720918 8.63624303,21.1384672 C9.07128771,19.8902698 9.99442953,18.8340418 11.2465204,18.2506215 L13.9558868,16.9881738 L14.4880596,13.2376045 C13.078604,12.1520919 12.1986777,10.5136377 12.0750892,8.7345479 L11.9393943,6.78118215 C11.7802571,6.28322702 11.6943839,5.75275287 11.6943839,5.20231214 C11.6943839,2.32915448 14.0340572,-5.13367127e-13 16.9201904,-5.13367127e-13 C19.8063236,-5.13367127e-13 22.1459968,2.32915448 22.1459968,5.20231214 C22.1459968,5.64497169 22.0904607,6.07471838 21.9859462,6.48502383 L21.7762026,8.76059934 C21.6089832,10.5748157 20.6784977,12.2324409 19.2168257,13.3200339 L19.0964389,13.4096106 L19.6318607,16.8719879 L22.6945043,18.3007758 C23.9508323,18.8868793 24.8781856,19.9507877 25.3103324,21.2097583 C26.7659446,23.7729812 27.8440924,26.116167 28.5447759,28.2393158 C29.3496069,30.6780431 30.0174269,33.2986029 30.5482358,36.1009952 C31.214048,37.7962918 31.7971864,39.8176977 32.2976511,42.165213 C33.048348,45.686486 33.3604218,49.4391025 33.5983986,50.7826684 C33.8363754,52.1262343 34.6566423,57.4300672 32.5878645,58.8751539 C30.5190866,60.3202406 31.7361175,56.5630152 31.7361175,55.9849805 C31.7361175,55.4069459 30.6648019,57.9041471 30.5482358,55.4069459 C30.4316697,52.9097446 31.8465959,52.5661876 31.5469541,50.8744748 C31.2473124,49.1827619 28.5447759,44.4242869 27.9945047,39.3836381 C27.1059476,37.1048166 26.7135324,36.5012748 26.0772893,34.5976973 C25.8723116,33.9844239 25.5031992,32.9720175 24.9699522,31.560478 Z" id="Combined-Shape"></path>
                    <path d="M11.9393943,6.78118215 C11.7802571,6.28322702 11.6943839,5.75275287 11.6943839,5.20231214 C11.6943839,2.32915448 14.0340572,0 16.9201904,0 C19.8063236,0 22.1459968,2.32915448 22.1459968,5.20231214 C22.1459968,5.64497169 22.0904607,6.07471838 21.9859462,6.48502383 L21.7762026,8.76059934 C21.6089832,10.5748157 20.6784977,12.2324409 19.2168257,13.3200339 C17.8521977,14.3354188 15.9844639,14.3404454 14.6143904,13.3324203 L14.5975552,13.3200339 C13.1242404,12.2360495 12.2018476,10.55927 12.0750892,8.7345479 L11.9393943,6.78118215 Z" id="Combined-Shape-Copy"></path>
                </g>
            </g>
        </g>
    </g>
</svg>