<?xml version="1.0" encoding="UTF-8"?>
<svg width="42px" height="142px" viewBox="0 0 42 142" version="1.1" xmlns="http://www.w3.org/2000/svg" xmlns:xlink="http://www.w3.org/1999/xlink">
    <!-- Generator: sketchtool 52.6 (67491) - http://www.bohemiancoding.com/sketch -->
    <title>273AD476-A03F-4E26-ADBE-A9422DE651E8@3x</title>
    <desc>Created with sketchtool.</desc>
    <g id="OFFER" stroke="none" stroke-width="1" fill="none" fill-rule="evenodd">
        <g id="photo" transform="translate(-193.000000, -291.000000)" fill-rule="nonzero" stroke="#000000">
            <path d="M233.912283,345.943451 C233.486025,344.991508 233.12066,342.706844 233.364236,341.183735 C233.607813,339.660626 233.912283,331.981617 233.12066,329.950805 C232.329036,327.919992 233.303342,324.175682 231.111154,320.494835 C228.918966,316.813988 223.986543,316.940913 223.986543,316.940913 C223.986543,316.940913 219.35859,315.354341 218.688755,314.402398 C218.018919,313.450455 218.384284,309.198442 218.384284,309.198442 C219.663061,308.246498 219.784849,305.390668 219.784849,305.390668 C219.784849,305.390668 219.906637,305.898372 220.39379,305.581057 C220.880943,305.263743 221.063625,301.836747 220.880943,301.519433 C220.759155,301.202118 220.211108,301.329044 220.211108,301.329044 C220.211108,301.329044 221.002731,296.886642 219.663061,294.601978 C218.32339,292.317314 215.21779,292 213.999908,292 C212.782026,292 209.615532,292.317314 208.336755,294.601978 C206.997085,296.886642 207.788708,301.329044 207.788708,301.329044 C207.788708,301.329044 207.240661,301.202118 207.118873,301.519433 C206.997085,301.836747 207.179767,305.20028 207.606026,305.581057 C208.093179,305.898372 208.214967,305.390668 208.214967,305.390668 C208.214967,305.390668 208.336755,308.246498 209.615532,309.198442 C209.615532,309.198442 209.920002,313.450455 209.311061,314.402398 C208.641226,315.354341 204.013273,316.940913 204.013273,316.940913 C204.013273,316.940913 199.08085,316.813988 196.888662,320.494835 C194.696474,324.175682 195.67078,327.919992 194.879156,329.950805 C194.087533,331.981617 194.392003,339.660626 194.63558,341.183735 C194.879156,342.706844 194.513791,344.991508 194.087533,345.943451 C193.661274,346.895394 194.94005,362.888041 194.757368,365.109242 C194.574685,367.26698 193.90485,373.169028 194.148427,373.676731 C194.392003,374.184434 196.097038,378.690299 197.923862,378.944151 C197.923862,378.944151 199.202638,379.896094 199.689791,379.642243 C200.11605,379.324928 199.568003,378.690299 199.568003,378.690299 C199.568003,378.690299 199.933368,378.753762 200.176944,378.499911 C200.42052,378.246059 198.471909,376.342173 198.471909,376.342173 C198.471909,376.342173 199.446215,376.786413 199.750685,376.405635 C200.055156,376.024858 197.254026,374.438286 196.766874,373.295954 C196.279721,372.153622 196.949556,371.392068 196.949556,371.392068 L197.741179,371.772845 C197.741179,371.772845 198.532803,374.438286 199.08085,374.438286 C199.628897,374.501749 199.994262,374.501749 199.507109,371.328605 C199.507109,371.328605 200.176944,368.980478 199.628897,367.965072 C199.141744,366.949666 198.532803,366.632351 198.532803,365.553482 C198.532803,364.41115 200.11605,358.636028 200.603203,355.462884 C201.090356,352.28974 200.176944,346.006914 200.664097,344.801119 C201.15125,343.595325 201.821085,340.739495 201.821085,338.64522 C201.881979,336.614407 202.369132,333.885503 202.856285,333.187412 C203.343438,332.48932 202.612709,337.12211 203.708803,340.041403 C204.804897,342.960696 204.013273,348.037726 203.52612,350.258927 C203.038967,352.416665 201.273038,364.728465 201.15125,369.23433 C200.968567,373.740194 202.247344,390.304007 202.064662,392.715597 C201.881979,395.127186 200.785885,398.490719 200.785885,405.34471 C200.785885,412.198702 201.881979,412.769868 202.795391,415.625698 C203.404332,417.593047 204.074167,421.591209 204.378638,424.447038 L204.439532,424.954742 C204.439532,424.954742 204.865791,426.287462 204.439532,426.668239 C204.013273,427.049017 203.708803,427.55672 203.465226,428.00096 C203.22165,428.508663 201.516614,429.777921 201.212144,430.095235 C200.907673,430.41255 200.176944,431.047178 200.542309,431.999122 L209.128379,431.999122 C209.128379,431.999122 209.311061,432.062585 209.432849,431.110641 C209.554638,430.158698 209.006591,428.88944 209.067485,428.127886 C209.128379,427.366331 209.311061,426.731702 209.189273,425.843222 C209.067485,424.70089 208.884802,423.495095 208.884802,422.797003 C208.763014,420.258488 208.641226,415.435309 209.250167,412.769868 C210.102685,409.152483 209.980896,403.694675 209.128379,401.283086 C208.336755,398.871496 209.493743,397.538776 210.407155,394.55602 C211.259673,391.636728 211.746826,384.528885 211.746826,381.419203 C211.746826,378.309522 212.721132,376.088321 213.208284,374.31136 C213.695437,372.470937 213.634543,369.868958 213.634543,369.868958 L213.999908,369.67857 L214.365273,369.868958 C214.365273,369.868958 214.304379,372.470937 214.791531,374.31136 C215.278684,376.151784 216.25299,378.309522 216.25299,381.419203 C216.25299,384.528885 216.679249,391.636728 217.592661,394.55602 C218.445178,397.475313 219.663061,398.808033 218.871437,401.283086 C218.079814,403.694675 217.958025,409.215946 218.749649,412.769868 C219.541272,416.069938 219.175908,422.479689 219.054119,424.129724 C218.993225,424.70089 218.932331,425.272056 218.871437,425.843222 C218.749649,426.731702 218.932331,427.302868 218.993225,428.127886 C219.054119,428.88944 218.506072,430.158698 218.627861,431.110641 C218.749649,432.062585 218.932331,431.999122 218.932331,431.999122 L227.518401,431.999122 C227.822872,431.110641 227.153037,430.41255 226.848566,430.095235 C226.544096,429.777921 224.83906,428.508663 224.595484,428.00096 C224.351907,427.493257 224.047437,427.049017 223.621178,426.668239 C223.194919,426.287462 223.621178,424.954742 223.621178,424.954742 L223.864754,422.860466 C224.230119,420.258488 224.717272,417.275733 225.265319,415.68916 C226.178731,412.833331 227.274825,412.262165 227.274825,405.408173 C227.274825,398.554182 226.178731,395.190649 225.996048,392.779059 C225.813366,390.36747 227.092143,373.803657 226.90946,369.297792 C226.726778,364.791928 225.021743,352.543591 224.53459,350.32239 C224.047437,348.164652 223.255813,343.024159 224.351907,340.104866 C225.448001,337.185573 224.717272,332.616246 225.204425,333.250874 C225.691578,333.948966 226.178731,336.67787 226.239625,338.708682 C226.300519,340.739495 226.90946,343.595325 227.396613,344.864582 C227.883766,346.070377 226.970354,352.28974 227.457507,355.526347 C227.94466,358.699491 229.527907,364.538076 229.527907,365.616945 C229.527907,366.759277 228.918966,367.013129 228.431813,368.028535 C227.94466,369.043941 228.553601,371.392068 228.553601,371.392068 C228.127342,374.501749 228.431813,374.501749 228.97986,374.501749 C229.527907,374.438286 230.319531,371.836308 230.319531,371.836308 L231.111154,371.45553 C231.111154,371.45553 231.780989,372.217085 231.293836,373.359417 C230.806684,374.501749 228.005554,376.024858 228.310025,376.469098 C228.614495,376.849876 229.588801,376.405635 229.588801,376.405635 C229.588801,376.405635 227.64019,378.372985 227.883766,378.563373 C228.127342,378.817225 228.492707,378.753762 228.492707,378.753762 C228.492707,378.753762 227.94466,379.451854 228.370919,379.705705 C228.797178,380.02302 230.136848,379.007614 230.136848,379.007614 C231.902778,378.753762 233.607813,374.247897 233.912283,373.740194 C234.15586,373.232491 233.486025,367.330443 233.303342,365.172705 C233.059766,362.951504 234.338542,346.958857 233.912283,345.943451 Z" id="side"></path>
        </g>
    </g>
</svg>