<?xml version="1.0" encoding="UTF-8"?>
<svg width="16px" height="102px" viewBox="0 0 16 102" version="1.1" xmlns="http://www.w3.org/2000/svg" xmlns:xlink="http://www.w3.org/1999/xlink">
    <!-- Generator: Sketch 55.2 (78181) - https://sketchapp.com -->
    <title>Group</title>
    <desc>Created with Sketch.</desc>
    <g id="Desktop" stroke="none" stroke-width="1" fill="none" fill-rule="evenodd">
        <g id="Step-2" transform="translate(-407.000000, -441.000000)" stroke="#DDDDDD">
            <g id="Group" transform="translate(405.000000, 442.000000)">
                <path d="M14.3212656,10.9738529 C14.1381702,12.1363994 14.0466225,13.1646559 14.0466225,14.0586225 C14.0466225,15.4685999 14.3727678,16.790329 14.381539,18.3513676 C14.9501629,19.3373789 15.4615592,20.937 15.7769025,23.6037442 C16.0595553,25.9940358 16.1746811,30.2350936 15.9668251,34.547931 L15.9668253,34.5479259 L15.9724525,34.539312 C15.7186934,42.1749398 15.5554603,46.6359458 15.4827532,47.9223302 C15.3879347,49.5999231 15.1600038,50.8875111 14.9999275,52.4100696 C14.5774918,56.4280466 14.9622737,60.0973325 14.9999275,62.0044772 C15.058313,64.9616766 14.8657264,68.9657265 14.4221678,74.0166268 C15.0107676,76.6017229 15.3618521,78.4483154 15.4754213,79.5564047 C15.8594419,83.3032778 14.9402814,87.9849755 14.1471351,93.9200567 L14.1471351,94.2179636 C14.690422,96.4440846 15.1375717,97.3704221 14.6045812,99.5084253 C6.00902565,100.537739 3,99.8211987 3,98.5524745 C3,97.28375 8.36052226,96.7727247 11.3324758,94.3863272 L10.4720174,75.5489025 C8.25819901,65.7102971 7.1512898,59.1717396 7.1512898,55.9332301 C7.1512898,53.9143727 7.38234002,52.1491531 7.66320913,50.489439 C5.45932758,42.1691945 5.2492736,37.9250678 4.4080374,29.1919883 C4.06758277,25.6576453 5.21057466,22.1412466 8.8390729,18.0664021 C9.15804953,16.6166494 9.27059172,15.2630655 9.17669938,14.0056503 C7.59092711,14.6975714 6.36182879,15.0377898 6.29008879,14.8316661 C3.90306776,7.97326677 5.4134067,4.8779911 6.29008879,2.72858668 C7.16677081,0.579182244 10.6363856,-0.272363703 12.305167,0.0752932366 C16.7283912,0.996782774 18.0892415,5.71008824 16.1187614,9.01346943 C15.7155201,9.68947722 15.079985,10.3517796 14.3212656,10.9738529 Z" id="Combined-Shape"></path>
                <path d="M12.7945976,25.2888559 C11.5762197,27.7702964 7.39840081,48.1799149 7.2591145,48.1131293 C6.17579428,48.2910066 3.50155641,55.6850241 5.02511884,55.3551206 C6.3251686,55.0736153 7.78044042,54.203893 8.4483205,53.0076436 C9.36525956,51.3653015 9.88689937,49.4724355 9.64606428,49.0900004 C9.54640367,48.931744 18.3827886,24.4524243 18.5474904,24.2589133" id="Path" transform="translate(11.557231, 39.812376) rotate(-17.000000) translate(-11.557231, -39.812376) "></path>
            </g>
        </g>
    </g>
</svg>