<?xml version="1.0" encoding="UTF-8"?>
<svg width="25" height="142px" viewBox="0 0 33 191" version="1.1" xmlns="http://www.w3.org/2000/svg">
    <g stroke="#000000" stroke-width="1" fill="none" fill-rule="evenodd">
        <g transform="translate(-577.000000, -401.000000)">
            <path d="M609.282672,496.344485 C608.713949,493.632342 607.389317,491.102562 606.107646,488.655858 C604.688909,485.947768 603.222096,483.146469 602.859996,480.185097 C602.620642,478.231786 602.864088,471.104433 603.172998,469.032586 C603.682393,465.61328 604.585598,462.952806 605.460162,460.380475 C606.983233,455.893332 608.299682,452.018118 606.954592,445.777251 C606.717284,444.686113 606.406328,443.582816 606.131173,442.609201 C605.838628,441.571758 605.535855,440.499869 605.000888,439.515108 C604.646971,438.863667 604.205086,438.276053 603.778544,437.707689 C603.558624,437.414895 603.338705,437.121088 603.130037,436.820189 C601.322605,434.189096 599.382198,430.412155 600.410194,427.355549 C600.645457,426.656491 601.011648,426.374841 601.678567,425.863212 C602.226832,425.442764 602.909094,424.918977 603.772407,423.971702 C608.052145,419.279907 608.980922,414.186914 606.322451,409.996618 C607.781081,409.309717 608.766116,407.835616 608.787597,406.209546 C608.800894,405.085987 608.372307,404.028282 607.579573,403.232977 C606.78684,402.437671 605.726111,402 604.590712,402 C602.504033,402 600.739562,403.50956 600.369279,405.484146 C598.012559,404.706064 595.412393,404.650342 592.6322,405.31698 C591.654325,405.552026 588.346324,406.415211 586.814047,407.694791 C586.284194,408.137528 586.244302,408.619777 586.214638,408.971332 C586.198272,409.179023 586.183952,409.342137 586.089847,409.522474 C584.910464,411.769591 584.132051,414.549614 584.101364,415.313512 C584.08193,415.780564 584.153531,416.19696 584.221042,416.599171 C584.339696,417.298229 584.432778,417.851397 584.051243,418.516009 C583.672777,419.176568 583.329088,419.618292 582.966988,420.08737 C582.60898,420.54733 582.240742,421.0235 581.788628,421.749913 C581.481764,422.242293 581.400956,422.687056 581.550297,423.071032 C581.777377,423.661685 582.434067,423.854179 582.869815,423.981833 C582.927096,424.00007 582.983354,424.01324 583.03143,424.02945 C583.16645,424.484345 583.043704,424.767007 582.902547,425.090195 C582.80435,425.313083 582.704108,425.54509 582.710245,425.817621 C582.721497,426.336342 582.926073,426.636228 583.117352,426.804407 C583.055979,426.918891 583.013018,427.043506 582.995629,427.177238 C582.93937,427.577424 583.127581,427.955321 583.510139,428.214681 C583.635953,428.300797 583.756653,428.362598 583.865079,428.41832 C583.925429,428.447701 584.010328,428.486199 584.009305,428.480121 C584.024648,428.528751 584.047152,428.763796 583.706532,429.734373 C583.456949,430.449641 583.651296,430.91568 583.858941,431.180106 C584.562684,432.08179 586.302606,432.017963 588.509985,431.843705 C589.103257,431.796088 589.840755,431.741379 589.964524,431.763668 L590.107727,431.854849 C591.097877,432.489067 591.097877,432.489067 591.805711,435.165751 C592.07166,436.174826 592.189292,436.710771 592.12485,437.273057 C591.839466,439.769404 591.3403,440.219232 590.004416,441.423841 C589.829503,441.580876 589.643339,441.749055 589.443877,441.934458 C587.912622,443.35081 587.309122,444.305177 585.306319,447.462083 C585.219374,447.598855 584.547341,448.67277 583.73415,449.932088 C582.113905,452.43958 581.303782,453.691805 581.020444,454.080847 C579.981196,455.51037 579.402245,456.115207 579.190508,457.305632 C579.045259,458.123226 579.144479,458.81418 579.182325,459.040107 C579.352124,460.056274 579.787871,460.74824 580.066095,461.179833 C580.244077,461.45743 581.119664,462.773483 582.874929,463.70556 C583.830301,464.212124 584.748849,464.44717 585.483278,464.554561 C585.463843,465.624424 585.475095,467.547341 585.601932,469.544216 C585.65103,470.314193 585.858676,471.031487 586.099053,471.862252 C586.693347,473.913836 587.507561,476.723239 586.589013,482.893187 C585.198917,492.233212 585.282793,494.339505 585.422928,497.830743 C585.443385,498.366688 585.466912,498.934039 585.484301,499.566231 C585.506804,500.319998 585.477141,500.434482 585.33496,500.98461 C585.242901,501.343257 585.108903,501.862992 584.925807,502.797096 C583.648228,509.258825 583.731081,515.290987 585.201985,522.96847 C586.431489,529.386634 587.751007,533.24969 589.222934,537.285991 C589.482746,537.99822 589.462289,538.290001 589.257712,538.925232 C588.093673,542.539059 588.541695,545.202572 590.753166,547.829612 C591.101968,548.242968 591.157204,550.20641 591.195051,551.506253 C591.218577,552.317768 591.240057,553.083693 591.309613,553.674346 C592.604582,564.675901 592.794838,573.367524 591.887542,580.244636 C591.735132,581.403654 590.468804,583.04796 589.297605,584.073245 C588.140725,585.086373 585.99881,585.614213 584.435847,586.001228 C583.917246,586.128882 583.45388,586.243365 583.09178,586.356835 C582.840151,586.435859 582.601819,586.535146 582.373717,586.631393 C582.052532,586.767152 581.747713,586.894806 581.527793,586.894806 C581.518587,586.898859 581.507336,586.894806 581.496084,586.894806 C580.903835,586.894806 580.345342,586.946476 579.997562,587.032592 C579.534197,587.149101 578.122619,587.500657 578.004988,588.969692 C577.972256,589.371904 578.101139,589.746761 578.376294,590.051712 C579.005367,590.749757 580.232825,590.933134 581.151373,590.963527 C582.793098,591.01621 588.922207,590.879438 590.703044,590.436701 C594.197209,589.564398 595.407278,590.038542 596.580524,590.494449 C597.218802,590.743679 597.879584,591 598.827796,591 C599.827151,591 602.007935,590.422517 602.441637,589.364812 C602.906026,588.235174 602.224786,586.604039 601.727666,585.4126 C601.583439,585.067124 601.459671,584.776356 601.406481,584.578796 L601.073021,583.34278 C599.984675,579.329781 599.788282,578.606408 600.864353,574.229696 C601.392161,572.081865 601.871892,570.41527 602.295365,568.945221 C603.459405,564.901828 604.228612,562.230211 604.576392,554.765485 C604.83109,549.337146 603.875718,547.248077 602.952055,545.2279 C602.753616,544.795295 602.5562,544.362689 602.371059,543.895637 C602.248313,543.587646 602.204329,543.030426 602.161368,542.493468 C602.12659,542.055797 602.090789,541.603942 602.009981,541.205783 C601.939402,540.860306 601.830977,540.594867 601.724597,540.338545 C601.574234,539.967741 601.443305,539.649619 601.418755,539.081254 C601.395229,538.566585 601.634584,537.961748 601.887235,537.321451 C602.044759,536.922279 602.206375,536.508922 602.325029,536.082396 C605.133863,526.092956 604.628559,517.998065 604.21736,511.409695 C604.136553,510.11897 605.056124,509.075449 605.665761,508.386522 C605.843743,508.183896 605.991038,508.013691 606.082074,507.879958 C608.04703,505.019898 610.198151,500.696882 609.282672,496.344485" id="Fill-1" transform="translate(593.750000, 496.500000) scale(-1, 1) translate(-593.750000, -496.500000) "></path>
        </g>
    </g>
</svg>
