<?xml version="1.0" encoding="UTF-8"?>
<svg width="22px" height="142px" viewBox="0 0 22 142" version="1.1" xmlns="http://www.w3.org/2000/svg" xmlns:xlink="http://www.w3.org/1999/xlink">
    <!-- Generator: sketchtool 52.6 (67491) - http://www.bohemiancoding.com/sketch -->
    <title>A7C44CA0-7D80-4F00-AD61-C878143C32A9@3x</title>
    <desc>Created with sketchtool.</desc>
    <g id="OFFER" stroke="none" stroke-width="1" fill="none" fill-rule="evenodd">
        <g id="photo" transform="translate(-375.000000, -291.000000)" fill-rule="nonzero" stroke="#000000">
            <path d="M381.44897,310.323321 L381.108976,307.645869 L381.108976,305.350909 L379.862332,305.159663 C379.862332,305.159663 379.749,304.777169 380.14566,303.948434 C380.54232,303.119699 381.392305,301.079735 381.392305,301.079735 C381.392305,301.079735 380.938979,300.633493 381.165642,298.976022 C381.392305,297.318551 381.505636,295.916076 381.505636,295.916076 C381.505636,295.916076 381.165642,295.278587 381.44897,294.513601 C381.732299,293.812363 383.772263,291.517404 389.268832,292.091143 C394.765402,292.664883 395.218727,297.446049 395.275393,298.848524 C395.332058,300.314748 395.502055,301.270981 394.312077,303.502192 C393.178763,305.733402 391.988784,308.857097 391.988784,310.38707 C391.988784,311.917043 393.065432,313.638263 393.972083,316.188218 C394.878733,318.738173 395.728718,320.778137 395.502055,324.284325 C395.275393,327.726764 391.422128,339.074063 391.025468,341.114027 C390.628808,343.153991 390.175483,346.915175 391.64879,349.592628 C393.122098,352.206331 395.388724,356.605004 394.935399,360.493685 C394.538739,364.446115 392.328778,368.14355 392.328778,368.14355 C392.328778,368.14355 391.592125,382.742042 391.422128,385.164499 C391.252131,387.586956 391.308796,389.308176 392.272113,391.666884 C393.292095,394.025593 395.842049,397.850525 395.672052,401.292964 C395.558721,404.735404 393.008766,414.680228 392.838769,417.548927 C392.668772,420.353878 392.215447,423.350075 392.782104,424.880048 C393.34876,426.410021 393.972083,428.13124 393.972083,428.13124 C393.972083,428.13124 395.785384,431.828675 393.518757,431.956173 C391.252131,432.08367 376.122398,431.892424 376.122398,431.892424 C376.122398,431.892424 375.782404,431.446182 376.235729,430.872442 C376.689054,430.298702 377.425708,429.151222 378.785684,429.469967 C380.202326,429.788711 381.278973,429.469967 382.752281,428.513733 C384.225588,427.493751 388.022188,424.561303 388.135519,423.668819 C388.24885,422.776335 387.512197,404.289161 386.888874,400.719224 C386.208886,397.149288 384.622248,395.555566 384.338919,394.280588 C384.055591,393.005611 384.055591,390.009414 383.5456,388.096947 C383.035609,386.184481 381.278973,381.913307 380.712317,377.833379 C380.14566,373.753451 379.805666,368.589792 379.805666,368.589792 C379.805666,368.589792 379.125678,361.067425 378.672353,357.688735 C378.219027,354.310044 377.255711,347.042673 377.029048,343.153991 C376.802386,339.26531 377.085714,332.826674 376.74572,331.487947 C376.405726,330.149221 375.555741,328.937993 378.162362,324.603069 C380.825648,320.268146 382.128958,319.120666 383.375603,317.909437 C384.622248,316.698209 385.925558,315.805725 385.812227,314.721994 C385.64223,313.638263 384.508916,310.578317 384.508916,310.578317 C384.508916,310.578317 381.84563,311.279554 381.44897,310.323321 Z" id="profile" transform="translate(385.840078, 362.000000) scale(-1, 1) translate(-385.840078, -362.000000) "></path>
        </g>
    </g>
</svg>